<?xml version="1.0" encoding="utf-8"?>
<!-- Generator: Adobe Illustrator 17.0.0, SVG Export Plug-In . SVG Version: 6.00 Build 0)  -->
<!DOCTYPE svg PUBLIC "-//W3C//DTD SVG 1.1//EN" "http://www.w3.org/Graphics/SVG/1.1/DTD/svg11.dtd">
<svg version="1.1" id="Слой_1" xmlns="http://www.w3.org/2000/svg" xmlns:xlink="http://www.w3.org/1999/xlink" x="0px" y="0px"
	 width="25px" height="32px" viewBox="0 0 50.001 64" enable-background="new 0 0 50.001 64" xml:space="preserve">
<g>
	<linearGradient id="SVGID_1_" gradientUnits="userSpaceOnUse" x1="25.0005" y1="64.0065" x2="25.0005" y2="-0.0065">
		<stop  offset="0" style="stop-color:#da5461"/>
		<stop  offset="1" style="stop-color:#da5461"/>
	</linearGradient>
	<path fill="url(#SVGID_1_)" d="M24.84-0.007c-13.243,0-24.839,11.27-24.839,25.174c0,12.893,24.558,38.839,24.558,38.839
		s25.442-25.513,25.442-38.839C50.001,11.264,38.082-0.007,24.84-0.007z M25.017,41.795c-9.662,0-17.495-7.707-17.495-17.213
		c0-9.508,7.833-17.216,17.495-17.216s17.495,7.708,17.495,17.216C42.512,34.088,34.679,41.795,25.017,41.795z"/>
	<linearGradient id="SVGID_2_" gradientUnits="userSpaceOnUse" x1="24.9965" y1="34.4485" x2="24.9965" y2="14.7715">
		<stop  offset="0" style="stop-color:#da5461"/>
		<stop  offset="1" style="stop-color:#da5461"/>
	</linearGradient>
	<path fill="url(#SVGID_2_)" d="M24.998,14.772c5.516,0,9.987,4.404,9.987,9.839c0,5.434-4.471,9.838-9.987,9.838
		c-5.517,0-9.989-4.404-9.989-9.838C15.009,19.176,19.482,14.772,24.998,14.772z"/>
</g>
</svg>
